<?xml version="1.0" standalone="no"?>
<!DOCTYPE svg PUBLIC "-//W3C//DTD SVG 20010904//EN"
 "http://www.w3.org/TR/2001/REC-SVG-20010904/DTD/svg10.dtd">
<svg version="1.0" xmlns="http://www.w3.org/2000/svg"
 width="245.000000pt" height="245.000000pt" viewBox="0 0 245.000000 245.000000"
 preserveAspectRatio="xMidYMid meet">
<metadata>
Created by potrace 1.16, written by Peter Selinger 2001-2019
</metadata>
<g transform="translate(0.000000,245.000000) scale(0.100000,-0.100000)"
fill="#000000" stroke="none">
<path d="M0 1225 l0 -1225 1225 0 1225 0 0 1225 0 1225 -1225 0 -1225 0 0
-1225z m1330 1035 c488 -60 864 -444 909 -929 16 -175 -16 -366 -88 -526 -102
-225 -316 -430 -547 -524 -383 -156 -822 -69 -1113 220 -290 289 -384 700
-247 1083 161 450 616 733 1086 676z"/>
<path d="M1101 2209 c-416 -48 -755 -357 -848 -773 -24 -109 -22 -309 5 -419
89 -361 357 -636 712 -731 87 -24 308 -32 406 -16 365 58 667 329 781 697 25
82 27 101 27 268 0 168 -2 186 -27 269 -121 393 -440 660 -842 706 -100 11
-109 11 -214 -1z m387 -111 c5 -7 16 -32 23 -55 6 -24 15 -43 19 -43 3 0 12
16 19 35 13 36 18 40 38 27 10 -6 7 -24 -13 -75 -35 -90 -52 -89 -85 3 l-16
45 -16 -38 c-11 -25 -22 -37 -32 -35 -22 4 -22 5 5 81 23 66 38 79 58 55z
m-496 -24 c9 -19 9 -30 1 -43 -9 -15 -6 -21 20 -36 30 -18 30 -19 9 -28 -16
-7 -28 -5 -48 8 -27 17 -27 17 -20 -8 4 -19 1 -26 -14 -30 -16 -4 -23 6 -44
69 l-24 73 26 10 c50 18 81 13 94 -15z m-262 -259 c-10 -13 -25 -14 -74 -9
l-61 6 33 -34 c27 -28 30 -37 19 -46 -10 -9 -25 0 -67 43 -46 46 -51 56 -40
70 12 15 32 15 110 -1 24 -5 24 -4 -9 30 -29 30 -32 37 -21 51 12 15 20 10 69
-39 47 -47 53 -57 41 -71z m613 111 c217 -42 405 -185 501 -381 49 -101 69
-190 70 -310 1 -494 -493 -832 -955 -654 -254 98 -429 340 -446 614 -8 124 15
233 74 355 38 79 59 108 132 180 173 172 391 240 624 196z m501 -37 c31 -37
33 -55 6 -71 -11 -7 -20 -20 -20 -28 0 -22 -20 -40 -44 -40 -11 0 -35 14 -53
32 l-33 32 52 53 c29 29 55 53 59 53 4 0 19 -14 33 -31z m141 -170 c21 -39 19
-64 -7 -93 -39 -43 -107 -36 -133 14 -20 39 -19 62 5 93 36 45 109 38 135 -14z
m84 -179 c21 -70 -26 -123 -94 -106 -27 7 -50 36 -60 77 -6 25 -3 28 52 47 82
29 88 28 102 -18z m-1632 -300 c41 -38 42 -92 1 -130 -49 -46 -132 -5 -132 65
0 69 83 111 131 65z m1637 -26 c43 -6 46 -9 46 -36 0 -50 -17 -71 -52 -64 -17
3 -37 1 -44 -5 -18 -15 -52 -2 -59 22 -4 12 -4 36 0 55 7 38 17 40 109 28z
m-202 -604 c-89 -81 -194 21 -110 107 l32 33 56 -55 55 -56 -33 -29z m-1022
-64 l0 -31 18 22 c12 16 21 20 32 13 13 -8 10 -19 -19 -75 -18 -36 -38 -65
-43 -65 -6 0 -26 10 -45 21 -27 17 -33 27 -31 48 2 16 12 30 26 36 20 9 23 15
19 47 -5 36 -4 36 19 26 18 -8 24 -19 24 -42z m805 -102 c-15 -11 -25 -9 -66
11 -27 14 -51 25 -54 25 -3 0 3 -17 14 -39 20 -39 19 -51 -6 -51 -10 0 -73
116 -73 135 0 15 40 10 80 -10 27 -14 52 -25 55 -25 3 0 -4 18 -15 40 -19 37
-19 40 -2 49 14 8 22 0 51 -56 31 -62 32 -68 16 -79z m-587 51 c3 -2 -4 -36
-14 -76 l-18 -71 -36 6 c-41 6 -80 46 -80 82 0 14 12 37 26 51 23 22 31 25 72
19 25 -3 47 -8 50 -11z m355 -7 c39 -29 38 -105 -1 -134 -22 -17 -73 -18 -96
-1 -16 12 -16 14 -3 26 11 9 21 9 34 3 27 -15 53 3 53 37 0 32 -21 54 -46 49
-22 -4 -31 -28 -10 -28 24 0 19 -27 -6 -34 -51 -13 -61 -8 -54 27 3 17 16 40
27 50 25 20 78 22 102 5z"/>
<path d="M1085 1880 c-226 -46 -420 -218 -496 -440 -30 -89 -37 -258 -15 -355
52 -219 238 -415 454 -479 48 -14 53 -14 48 0 -3 8 -13 40 -22 72 -8 31 -24
80 -34 107 -13 36 -16 62 -11 90 8 42 37 95 52 95 4 0 13 9 19 21 9 17 5 34
-26 100 -31 65 -44 83 -70 94 -18 7 -40 27 -49 44 -10 21 -23 31 -38 31 -34 0
-177 96 -177 119 0 20 86 103 134 131 67 38 113 39 155 4 42 -35 41 -60 -4
-68 -39 -8 -55 -2 -55 20 0 23 -17 16 -44 -18 -14 -18 -24 -33 -23 -35 1 -1
46 -5 100 -8 l97 -6 0 34 c0 19 -7 48 -15 63 -8 16 -15 46 -15 66 0 31 5 40
34 57 20 13 50 21 76 21 34 0 47 -6 71 -31 16 -17 29 -37 29 -44 0 -7 7 -18
15 -25 11 -9 12 -17 6 -23 -5 -5 -7 -22 -4 -37 4 -23 1 -28 -21 -34 -19 -5
-26 -13 -26 -31 0 -32 14 -32 52 0 16 14 39 25 51 25 11 0 31 10 44 22 12 11
39 24 59 27 l37 6 -38 45 c-35 41 -41 45 -84 45 -42 0 -46 2 -46 25 0 22 7 27
54 38 45 11 56 11 70 -1 9 -8 39 -26 68 -41 34 -17 62 -41 81 -69 l30 -43 -39
-64 c-42 -71 -79 -106 -121 -115 -20 -5 -30 -16 -39 -43 -6 -20 -24 -60 -39
-88 -16 -28 -31 -71 -34 -95 -3 -24 -14 -68 -25 -97 -27 -69 -26 -92 6 -155
25 -46 28 -63 28 -149 0 -54 0 -98 1 -98 0 0 25 7 55 16 165 48 324 183 398
336 95 195 95 395 0 587 -55 111 -170 230 -276 284 -130 68 -303 94 -438 67z"/>
</g>
</svg>
